HIERARCHY
ROOT newVegas:Hips
{
	OFFSET 0.000000 96.479958 0.000000
	CHANNELS 6 Xposition Yposition Zposition Xrotation Yrotation Zrotation
	JOINT newVegas:Pelvis
	{
		OFFSET 0.000000 0.000000 0.000000
		CHANNELS 3 Xrotation Yrotation Zrotation
		JOINT newVegas:LeftUpLeg
		{
			OFFSET 18.735201 -5.666702 -4.541200
			CHANNELS 3 Xrotation Yrotation Zrotation
			JOINT newVegas:LeftLeg
			{
				OFFSET -0.021200 -31.938179 0.493100
				CHANNELS 3 Xrotation Yrotation Zrotation
				JOINT newVegas:LeftFoot
				{
					OFFSET 0.021200 -31.938179 -4.336299
					CHANNELS 3 Xrotation Yrotation Zrotation
					JOINT newVegas:LeftToeBase
					{
						OFFSET 0.943001 -26.722000 15.023500
						CHANNELS 3 Xrotation Yrotation Zrotation
						End Site
						{
							OFFSET 0.000000 30.670183 0.000000
						}
					}
				}
				JOINT newVegas:Left_PantLeg
				{
					OFFSET 0.663870 -9.044666 -1.108900
					CHANNELS 3 Xrotation Yrotation Zrotation
					End Site
					{
						OFFSET 1.415995 20.635357 0.000000
					}
				}
			}
		}
		JOINT newVegas:RightUpLeg
		{
			OFFSET -18.735201 -5.666702 -4.541200
			CHANNELS 3 Xrotation Yrotation Zrotation
			JOINT newVegas:RightLeg
			{
				OFFSET 0.018946 -31.938133 0.493100
				CHANNELS 3 Xrotation Yrotation Zrotation
				JOINT newVegas:RightFoot
				{
					OFFSET -0.018946 -31.938126 -4.336299
					CHANNELS 3 Xrotation Yrotation Zrotation
					JOINT newVegas:RightToeBase
					{
						OFFSET -0.943001 -26.722004 15.023500
						CHANNELS 3 Xrotation Yrotation Zrotation
						End Site
						{
							OFFSET 0.000000 30.670187 0.000000
						}
					}
				}
				JOINT newVegas:Right_PantLeg
				{
					OFFSET -0.661674 -9.044716 -1.108900
					CHANNELS 3 Xrotation Yrotation Zrotation
					End Site
					{
						OFFSET -1.415958 20.635269 0.000000
					}
				}
			}
		}
	}
	JOINT newVegas:Spine
	{
		OFFSET 0.000000 10.199997 -0.299500
		CHANNELS 3 Xrotation Yrotation Zrotation
		JOINT newVegas:Spine1
		{
			OFFSET 0.000000 11.900002 -1.516600
			CHANNELS 3 Xrotation Yrotation Zrotation
			JOINT newVegas:Spine2
			{
				OFFSET 0.000000 13.600006 -2.842500
				CHANNELS 3 Xrotation Yrotation Zrotation
				JOINT newVegas:Neck
				{
					OFFSET 0.000000 9.624100 -2.890100
					CHANNELS 3 Xrotation Yrotation Zrotation
					JOINT newVegas:Head
					{
						OFFSET 0.000000 14.068802 -1.351900
						CHANNELS 3 Xrotation Yrotation Zrotation
						JOINT newVegas:Hair_Back
						{
							OFFSET 0.000000 3.231903 -17.524799
							CHANNELS 3 Xrotation Yrotation Zrotation
							End Site
							{
								OFFSET 0.000000 19.849884 0.000000
							}
						}
						JOINT newVegas:Hair_Front
						{
							OFFSET 0.000000 31.260406 4.573800
							CHANNELS 3 Xrotation Yrotation Zrotation
							JOINT newVegas:Hair_Front1
							{
								OFFSET 0.000000 2.284103 11.993300
								CHANNELS 3 Xrotation Yrotation Zrotation
								JOINT newVegas:Hair_Front2
								{
									OFFSET 0.000000 2.284103 11.993300
									CHANNELS 3 Xrotation Yrotation Zrotation
									End Site
									{
										OFFSET 0.000000 12.208862 0.000000
									}
								}
							}
						}
						JOINT newVegas:Jowel
						{
							OFFSET 0.000000 -7.458206 6.864100
							CHANNELS 3 Xrotation Yrotation Zrotation
							End Site
							{
								OFFSET 0.000000 19.849884 0.000000
							}
						}
					}
				}
				JOINT newVegas:LeftShoulder
				{
					OFFSET 15.263000 10.923401 -0.547700
					CHANNELS 3 Xrotation Yrotation Zrotation
					JOINT newVegas:LeftArm
					{
						OFFSET 25.438599 -2.830597 -13.032500
						CHANNELS 3 Xrotation Yrotation Zrotation
						JOINT newVegas:LeftForeArm
						{
							OFFSET 29.960503 0.000000 0.000000
							CHANNELS 3 Xrotation Yrotation Zrotation
							JOINT newVegas:LeftHand
							{
								OFFSET 27.849251 0.000000 0.000000
								CHANNELS 3 Xrotation Yrotation Zrotation
								JOINT newVegas:LeftHandThumb1
								{
									OFFSET 4.487587 -3.305161 6.305391
									CHANNELS 3 Xrotation Yrotation Zrotation
									JOINT newVegas:LeftHandThumb2
									{
										OFFSET 5.480453 -3.164139 3.164143
										CHANNELS 3 Xrotation Yrotation Zrotation
										JOINT newVegas:LeftHandThumb3
										{
											OFFSET 5.159721 -2.978973 2.978967
											CHANNELS 3 Xrotation Yrotation Zrotation
											End Site
											{
												OFFSET 2.494507 5.926697 1.738678
											}
										}
									}
								}
								JOINT newVegas:LeftHandIndex1
								{
									OFFSET 18.578728 -0.527832 5.208049
									CHANNELS 3 Xrotation Yrotation Zrotation
									JOINT newVegas:LeftHandIndex2
									{
										OFFSET 3.192009 0.000000 0.000000
										CHANNELS 3 Xrotation Yrotation Zrotation
										JOINT newVegas:LeftHandIndex3
										{
											OFFSET 3.835129 0.000000 0.000000
											CHANNELS 3 Xrotation Yrotation Zrotation
											End Site
											{
												OFFSET -0.034599 3.816971 0.371180
											}
										}
									}
								}
								JOINT newVegas:LeftHandMiddle1
								{
									OFFSET 18.476105 0.000000 0.000000
									CHANNELS 3 Xrotation Yrotation Zrotation
									JOINT newVegas:LeftHandMiddle2
									{
										OFFSET 3.324875 0.000000 0.000000
										CHANNELS 3 Xrotation Yrotation Zrotation
										JOINT newVegas:LeftHandMiddle3
										{
											OFFSET 4.596550 0.000000 0.000000
											CHANNELS 3 Xrotation Yrotation Zrotation
											End Site
											{
												OFFSET 0.057701 4.578827 0.399218
											}
										}
									}
								}
								JOINT newVegas:LeftHandRing1
								{
									OFFSET 17.732719 0.121887 -4.201567
									CHANNELS 3 Xrotation Yrotation Zrotation
									JOINT newVegas:LeftHandRing2
									{
										OFFSET 2.733170 0.000000 0.000000
										CHANNELS 3 Xrotation Yrotation Zrotation
										JOINT newVegas:LeftHandRing3
										{
											OFFSET 3.178268 0.000000 0.000000
											CHANNELS 3 Xrotation Yrotation Zrotation
											End Site
											{
												OFFSET 0.119102 3.170624 0.185394
											}
										}
									}
								}
								JOINT newVegas:LeftHandPinky1
								{
									OFFSET 15.989624 -0.606689 -7.535461
									CHANNELS 3 Xrotation Yrotation Zrotation
									JOINT newVegas:LeftHandPinky2
									{
										OFFSET 2.538986 0.000000 0.000000
										CHANNELS 3 Xrotation Yrotation Zrotation
										JOINT newVegas:LeftHandPinky3
										{
											OFFSET 2.593102 0.000000 0.000000
											CHANNELS 3 Xrotation Yrotation Zrotation
											End Site
											{
												OFFSET -0.150902 2.584198 0.152708
											}
										}
									}
								}
							}
							JOINT newVegas:Left_Sleeve
							{
								OFFSET 0.267448 -0.649796 0.577675
								CHANNELS 3 Xrotation Yrotation Zrotation
								End Site
								{
									OFFSET 0.000000 15.991241 0.000000
								}
							}
							JOINT newVegas:Left_CapeC
							{
								OFFSET 15.715958 -8.608795 -6.935905
								CHANNELS 3 Xrotation Yrotation Zrotation
								JOINT newVegas:Left_CapeC1
								{
									OFFSET 0.000000 -8.688499 0.000000
									CHANNELS 3 Xrotation Yrotation Zrotation
									End Site
									{
										OFFSET 0.000000 8.688499 0.000000
									}
								}
							}
						}
						JOINT newVegas:Left_CapeB
						{
							OFFSET 26.118385 -8.608795 -7.079235
							CHANNELS 3 Xrotation Yrotation Zrotation
							JOINT newVegas:Left_CapeB1
							{
								OFFSET 0.000000 -8.688499 0.000000
								CHANNELS 3 Xrotation Yrotation Zrotation
								End Site
								{
									OFFSET 0.000000 8.688499 0.000000
								}
							}
						}
						JOINT newVegas:Left_CapeA
						{
							OFFSET 5.115639 -8.608795 -10.395809
							CHANNELS 3 Xrotation Yrotation Zrotation
							JOINT newVegas:Left_CapeA1
							{
								OFFSET 0.000000 -8.688499 0.000000
								CHANNELS 3 Xrotation Yrotation Zrotation
								End Site
								{
									OFFSET 0.000000 8.688499 0.000000
								}
							}
						}
					}
				}
				JOINT newVegas:RightShoulder
				{
					OFFSET -15.263000 10.923401 -0.547700
					CHANNELS 3 Xrotation Yrotation Zrotation
					JOINT newVegas:RightArm
					{
						OFFSET -25.438599 -2.830597 -13.032500
						CHANNELS 3 Xrotation Yrotation Zrotation
						JOINT newVegas:RightForeArm
						{
							OFFSET -29.960503 0.000000 0.000000
							CHANNELS 3 Xrotation Yrotation Zrotation
							JOINT newVegas:RightHand
							{
								OFFSET -27.849251 0.000000 0.000000
								CHANNELS 3 Xrotation Yrotation Zrotation
								JOINT newVegas:RightHandThumb1
								{
									OFFSET -4.487587 -3.305161 6.305391
									CHANNELS 3 Xrotation Yrotation Zrotation
									JOINT newVegas:RightHandThumb2
									{
										OFFSET -5.480453 -3.164139 3.164143
										CHANNELS 3 Xrotation Yrotation Zrotation
										JOINT newVegas:RightHandThumb3
										{
											OFFSET -5.159721 -2.978973 2.978967
											CHANNELS 3 Xrotation Yrotation Zrotation
											End Site
											{
												OFFSET -2.494507 5.926697 1.738678
											}
										}
									}
								}
								JOINT newVegas:RightHandIndex1
								{
									OFFSET -18.578728 -0.527832 5.208049
									CHANNELS 3 Xrotation Yrotation Zrotation
									JOINT newVegas:RightHandIndex2
									{
										OFFSET -3.192009 0.000000 0.000000
										CHANNELS 3 Xrotation Yrotation Zrotation
										JOINT newVegas:RightHandIndex3
										{
											OFFSET -3.835129 0.000000 0.000000
											CHANNELS 3 Xrotation Yrotation Zrotation
											End Site
											{
												OFFSET 0.034599 3.816971 0.371180
											}
										}
									}
								}
								JOINT newVegas:RightHandMiddle1
								{
									OFFSET -18.476105 0.000000 0.000000
									CHANNELS 3 Xrotation Yrotation Zrotation
									JOINT newVegas:RightHandMiddle2
									{
										OFFSET -3.324875 0.000000 0.000000
										CHANNELS 3 Xrotation Yrotation Zrotation
										JOINT newVegas:RightHandMiddle3
										{
											OFFSET -4.596550 0.000000 0.000000
											CHANNELS 3 Xrotation Yrotation Zrotation
											End Site
											{
												OFFSET -0.057701 4.578827 0.399218
											}
										}
									}
								}
								JOINT newVegas:RightHandRing1
								{
									OFFSET -17.732719 0.121887 -4.201567
									CHANNELS 3 Xrotation Yrotation Zrotation
									JOINT newVegas:RightHandRing2
									{
										OFFSET -2.733170 0.000000 0.000000
										CHANNELS 3 Xrotation Yrotation Zrotation
										JOINT newVegas:RightHandRing3
										{
											OFFSET -3.178268 0.000000 0.000000
											CHANNELS 3 Xrotation Yrotation Zrotation
											End Site
											{
												OFFSET -0.119102 3.170624 0.185394
											}
										}
									}
								}
								JOINT newVegas:RightHandPinky1
								{
									OFFSET -15.989624 -0.606689 -7.535461
									CHANNELS 3 Xrotation Yrotation Zrotation
									JOINT newVegas:RightHandPinky2
									{
										OFFSET -2.538986 0.000000 0.000000
										CHANNELS 3 Xrotation Yrotation Zrotation
										JOINT newVegas:RightHandPinky3
										{
											OFFSET -2.593102 0.000000 0.000000
											CHANNELS 3 Xrotation Yrotation Zrotation
											End Site
											{
												OFFSET 0.150902 2.584198 0.152708
											}
										}
									}
								}
							}
							JOINT newVegas:Right_CapeC
							{
								OFFSET -15.715958 -8.608795 -6.935905
								CHANNELS 3 Xrotation Yrotation Zrotation
								JOINT newVegas:Right_CapeC1
								{
									OFFSET 0.000000 -8.688499 0.000000
									CHANNELS 3 Xrotation Yrotation Zrotation
									End Site
									{
										OFFSET 0.000000 8.688499 0.000000
									}
								}
							}
							JOINT newVegas:Right_Sleeve
							{
								OFFSET -0.267448 -0.649994 0.577675
								CHANNELS 3 Xrotation Yrotation Zrotation
								End Site
								{
									OFFSET 0.000000 15.991302 0.000000
								}
							}
						}
						JOINT newVegas:Right_CapeA
						{
							OFFSET -5.115540 -8.608795 -10.395824
							CHANNELS 3 Xrotation Yrotation Zrotation
							JOINT newVegas:Right_CapeA1
							{
								OFFSET 0.000000 -8.688499 0.000000
								CHANNELS 3 Xrotation Yrotation Zrotation
								End Site
								{
									OFFSET 0.000000 8.688499 0.000000
								}
							}
						}
						JOINT newVegas:Right_CapeB
						{
							OFFSET -26.118187 -8.608795 -7.079266
							CHANNELS 3 Xrotation Yrotation Zrotation
							JOINT newVegas:Right_CapeB1
							{
								OFFSET 0.000000 -8.688499 0.000000
								CHANNELS 3 Xrotation Yrotation Zrotation
								End Site
								{
									OFFSET 0.000000 8.688499 0.000000
								}
							}
						}
					}
				}
				JOINT newVegas:Left_Collar
				{
					OFFSET 18.625099 8.655502 8.828100
					CHANNELS 3 Xrotation Yrotation Zrotation
					JOINT newVegas:Left_Collar1
					{
						OFFSET 14.783401 10.540405 -1.259500
						CHANNELS 3 Xrotation Yrotation Zrotation
						End Site
						{
							OFFSET 0.000000 18.199875 0.000000
						}
					}
				}
				JOINT newVegas:Collar_Back
				{
					OFFSET 0.000000 15.630707 -20.132601
					CHANNELS 3 Xrotation Yrotation Zrotation
					End Site
					{
						OFFSET 0.000000 22.523010 0.000000
					}
				}
				JOINT newVegas:Left_Peck
				{
					OFFSET 17.239599 -5.132599 25.482599
					CHANNELS 3 Xrotation Yrotation Zrotation
					End Site
					{
						OFFSET 0.000000 22.523010 0.000000
					}
				}
				JOINT newVegas:Right_Peck
				{
					OFFSET -17.239599 -5.132202 25.482599
					CHANNELS 3 Xrotation Yrotation Zrotation
					End Site
					{
						OFFSET 0.000000 22.523010 0.000000
					}
				}
				JOINT newVegas:Right_Collar
				{
					OFFSET -18.625099 8.655792 8.828100
					CHANNELS 3 Xrotation Yrotation Zrotation
					JOINT newVegas:Right_Collar1
					{
						OFFSET -14.783401 10.539993 -1.259500
						CHANNELS 3 Xrotation Yrotation Zrotation
						End Site
						{
							OFFSET 0.000000 18.199631 0.000000
						}
					}
				}
			}
		}
		JOINT newVegas:Belly
		{
			OFFSET 0.000000 -6.540398 9.014299
			CHANNELS 3 Xrotation Yrotation Zrotation
			End Site
			{
				OFFSET 0.000000 11.566666 0.000000
			}
		}
	}
	JOINT newVegas:ElvisFacialAnim_Joint
	{
		OFFSET 1.000000 -95.330101 -8.825800
		CHANNELS 3 Xrotation Yrotation Zrotation
		End Site
		{
			OFFSET 0.000000 35.315800 0.000000
		}
	}
}
MOTION
Frames: 4
Frame Time: 0.033333
-46.251114 90.658539 10.456242 -162.029067 -41.092023 -167.871583 -0.000001 0.000001 0.000000 -26.592430 32.264086 35.340953 43.634967 2.675715 -4.389858 -7.167258 1.910997 -5.642349 0.000000 0.000000 -0.000000 0.000001 -0.000000 -0.000000 -1.771096 16.019647 -4.217333 48.642821 -8.696602 0.224689 -21.003585 -16.424085 -0.862159 -0.000000 0.000000 -0.000001 0.000002 0.000002 -0.000002 9.932068 -0.693457 1.416686 17.392315 -0.785339 -0.218577 17.350368 -0.806722 -0.217859 0.050609 3.057959 0.159080 0.050592 3.057969 0.159067 0.000002 -0.000002 0.000001 0.050615 3.057968 0.159074 0.050674 3.057959 0.159072 -0.000001 0.000000 -0.000002 0.000002 -0.000002 -0.000000 -37.664399 -5.871993 1.165199 -45.508454 -7.922682 -64.824253 -0.000015 -49.016818 -0.000009 -122.222328 2.099854 23.497570 4.709226 9.560372 3.111985 19.473187 -1.474908 7.636925 0.000002 -0.000002 -0.000004 -0.212811 3.933722 -36.747128 2.942135 5.078899 -60.144617 0.000002 -0.000000 0.000000 0.405917 5.507036 -52.453162 3.387130 5.308618 -65.057477 -0.000002 0.000001 0.000003 -0.074387 5.736756 -61.061420 4.055053 5.569493 -72.094914 0.000002 -0.000002 -0.000005 -6.565547 4.545175 -72.425215 3.299632 5.267184 -64.107835 -0.000002 -0.000002 0.000003 -0.000002 -0.000001 -0.000000 -0.000002 -0.000001 -0.000000 -0.000002 0.000000 -0.000000 0.000000 0.000001 -0.000002 -0.000000 0.000001 -0.000003 0.000000 0.000001 -0.000002 -0.000001 0.000000 -0.000001 -41.122496 -8.890643 -10.163758 -51.256215 57.652759 99.255838 0.000083 89.261461 -0.000215 -54.892072 -20.254322 -22.591066 8.377123 -4.904133 11.021994 21.620195 -18.183903 -18.379204 -0.000002 -0.000004 -0.000001 -0.920035 1.683582 12.434971 0.748109 -2.533465 32.898272 -0.000000 0.000000 0.000005 3.413057 -7.186249 51.650263 6.296804 -4.359580 110.634646 -0.000001 -0.000000 0.000000 -3.349052 -2.600404 57.010571 5.440874 -4.590885 99.698168 -0.000000 -0.000001 -0.000001 -3.996433 -3.303958 64.593871 4.058825 -4.618639 82.610510 -0.000000 0.000002 0.000001 0.000001 0.000002 -0.000001 0.000001 0.000001 -0.000001 0.000001 0.000001 -0.000001 0.000001 0.000000 0.000003 0.000001 0.000001 0.000003 0.000001 0.000000 0.000003 0.000001 0.000001 0.000004 0.000001 -0.000002 0.000001 0.000001 -0.000002 0.000001 0.000001 -0.000002 0.000001 0.000001 -0.000002 0.000001 0.000001 -0.000002 0.000001 0.000001 -0.000002 0.000001 0.000001 -0.000002 0.000001 0.000000 0.000002 0.000000 -0.000001 0.000001 0.000000 
-46.713921 90.887291 10.863917 -162.216856 -40.409575 -167.898385 -0.000000 -0.000001 -0.000001 -25.576236 33.293173 34.742085 42.837956 2.452125 -4.746852 -7.414123 2.112021 -5.222060 0.000000 -0.000000 0.000000 -0.000001 0.000000 -0.000000 0.366210 13.780074 -4.492375 46.599382 -6.369345 0.566630 -23.090788 -18.099011 0.545005 -0.000000 -0.000002 -0.000000 -0.000001 -0.000001 0.000000 9.649815 -0.630692 1.091727 17.298735 -0.704444 -0.306702 17.261683 -0.729799 -0.303328 0.110855 3.033730 0.204225 0.110855 3.033728 0.204229 0.000001 0.000000 0.000001 0.110857 3.033745 0.204216 0.110847 3.033714 0.204224 0.000003 -0.000001 -0.000000 0.000001 0.000000 0.000002 -37.700394 -6.112616 0.939718 -46.147623 -8.097380 -64.263037 0.000031 -48.621354 0.000018 -121.669069 2.801462 23.914253 4.709227 9.560371 3.111982 19.473192 -1.474905 7.636923 0.000002 0.000002 -0.000001 -0.212811 3.933719 -36.747128 2.942135 5.078895 -60.144610 -0.000000 0.000000 0.000000 0.405916 5.507031 -52.453165 3.387125 5.308622 -65.057477 -0.000004 -0.000001 0.000003 -0.074389 5.736753 -61.061427 4.055054 5.569494 -72.094901 -0.000002 -0.000001 0.000000 -6.565554 4.545170 -72.425215 3.299627 5.267193 -64.107841 -0.000003 -0.000000 0.000002 -0.000001 -0.000001 0.000002 -0.000001 -0.000001 0.000002 -0.000001 -0.000000 0.000002 0.000004 0.000000 -0.000000 0.000003 0.000000 0.000001 0.000004 0.000000 -0.000000 0.000002 -0.000002 0.000001 -41.146395 -8.719707 -10.118472 -51.860643 57.672731 99.935018 0.000696 89.078139 -0.000849 -55.144468 -19.455420 -23.330697 8.377124 -4.904131 11.021993 21.620202 -18.183907 -18.379207 0.000000 -0.000000 -0.000001 -0.920035 1.683582 12.434972 0.748110 -2.533466 32.898272 -0.000000 0.000001 0.000000 3.413058 -7.186247 51.650259 6.296803 -4.359580 110.634646 -0.000000 0.000000 -0.000002 -3.349051 -2.600402 57.010578 5.440877 -4.590882 99.698174 0.000000 -0.000001 0.000001 -3.996433 -3.303961 64.593871 4.058822 -4.618644 82.610516 0.000000 -0.000000 0.000003 0.000002 0.000003 -0.000001 0.000000 0.000001 0.000000 0.000002 0.000002 -0.000000 0.000001 -0.000002 -0.000002 0.000001 -0.000001 -0.000002 0.000001 -0.000002 -0.000002 0.000001 -0.000001 -0.000001 -0.000002 -0.000002 0.000001 -0.000002 -0.000002 0.000001 -0.000002 -0.000002 0.000001 -0.000002 -0.000002 0.000001 -0.000002 -0.000002 0.000001 -0.000002 -0.000002 0.000001 -0.000002 -0.000002 0.000001 -0.000000 0.000002 0.000000 -0.000000 -0.000001 -0.000001 
-46.942406 91.053421 11.121453 -162.364088 -39.828561 -167.899656 0.000000 0.000001 -0.000000 -24.929209 34.248508 34.457683 42.024604 2.005701 -4.950958 -7.410176 2.242006 -4.907491 -0.000000 0.000000 -0.000000 -0.000000 -0.000000 0.000000 2.209157 12.085271 -5.300626 44.232930 -4.323076 0.789089 -24.415495 -19.193096 2.785210 0.000000 -0.000001 0.000000 0.000002 -0.000001 -0.000001 9.440758 -0.623354 0.849186 17.184170 -0.634327 -0.373950 17.150368 -0.665628 -0.367321 0.147623 3.016583 0.231058 0.147618 3.016585 0.231051 0.000002 0.000000 0.000000 0.147613 3.016585 0.231049 0.147618 3.016603 0.231051 0.000001 -0.000000 0.000000 0.000002 0.000000 0.000001 -37.724999 -6.276118 0.721958 -46.741242 -7.924115 -63.779009 0.000001 -48.576182 0.000004 -120.976502 3.606450 24.470619 4.709225 9.560371 3.111983 19.473195 -1.474911 7.636921 -0.000000 -0.000003 -0.000001 -0.212811 3.933719 -36.747125 2.942140 5.078893 -60.144610 0.000001 0.000000 0.000000 0.405917 5.507033 -52.453165 3.387123 5.308619 -65.057470 -0.000004 -0.000002 0.000003 -0.074388 5.736754 -61.061427 4.055051 5.569492 -72.094907 0.000002 -0.000001 -0.000001 -6.565550 4.545173 -72.425215 3.299627 5.267184 -64.107841 0.000001 -0.000002 0.000003 0.000001 0.000000 -0.000002 0.000001 0.000000 -0.000002 0.000001 0.000001 -0.000002 0.000001 -0.000001 -0.000000 0.000000 -0.000002 -0.000003 0.000001 -0.000001 -0.000000 -0.000001 -0.000002 0.000001 -41.167804 -8.583257 -10.085315 -52.730638 57.719770 100.930163 0.001207 89.015212 -0.001503 -55.258273 -18.820212 -24.221975 8.377124 -4.904133 11.021992 21.620199 -18.183898 -18.379201 0.000001 -0.000000 -0.000000 -0.920036 1.683582 12.434973 0.748109 -2.533466 32.898272 0.000000 0.000000 0.000001 3.413057 -7.186249 51.650263 6.296804 -4.359581 110.634646 -0.000000 0.000001 -0.000002 -3.349052 -2.600403 57.010575 5.440873 -4.590881 99.698174 -0.000000 0.000001 0.000001 -3.996433 -3.303959 64.593871 4.058822 -4.618640 82.610523 -0.000001 0.000002 -0.000003 -0.000002 0.000001 -0.000001 0.000000 0.000001 -0.000003 -0.000002 0.000000 -0.000000 -0.000002 0.000003 -0.000001 -0.000002 0.000004 -0.000002 -0.000002 0.000003 -0.000001 -0.000002 0.000004 -0.000001 0.000003 -0.000002 0.000002 0.000003 -0.000002 0.000002 0.000003 -0.000002 0.000002 0.000003 -0.000002 0.000002 0.000003 -0.000002 0.000002 0.000003 -0.000002 0.000002 0.000003 -0.000002 0.000002 0.000000 -0.000000 0.000000 0.000000 0.000001 -0.000000 
-47.030403 91.216675 11.264215 -162.497645 -39.320832 -167.896760 0.000000 0.000001 0.000000 -24.404109 35.290238 34.276403 41.043191 1.546900 -4.970988 -7.299930 2.316216 -4.717356 0.000000 0.000000 -0.000000 0.000000 0.000000 0.000000 3.481793 10.582060 -5.944871 41.981327 -2.917695 0.870380 -25.516938 -19.694779 4.116307 -0.000000 0.000001 0.000000 0.000001 -0.000003 -0.000001 9.265003 -0.598942 0.663108 17.076723 -0.559523 -0.435384 17.047041 -0.598106 -0.424347 0.163312 3.010311 0.242617 0.163319 3.010320 0.242619 0.000002 0.000001 -0.000001 0.163319 3.010299 0.242621 0.163401 3.010305 0.242618 -0.000000 -0.000000 0.000001 0.000002 0.000001 -0.000002 -37.743813 -6.388523 0.573348 -47.283139 -7.651404 -63.390658 -0.000001 -48.998578 -0.000016 -120.275793 4.264634 25.236405 4.709227 9.560375 3.111980 19.473195 -1.474908 7.636919 -0.000003 -0.000003 -0.000003 -0.212811 3.933720 -36.747128 2.942135 5.078899 -60.144610 -0.000003 -0.000000 0.000000 0.405917 5.507039 -52.453165 3.387125 5.308625 -65.057470 -0.000002 -0.000002 0.000003 -0.074388 5.736760 -61.061427 4.055047 5.569493 -72.094907 0.000000 -0.000001 0.000001 -6.565549 4.545173 -72.425215 3.299633 5.267185 -64.107841 0.000000 -0.000002 -0.000000 -0.000001 0.000002 0.000002 -0.000001 0.000002 0.000002 -0.000001 0.000002 0.000002 0.000000 -0.000001 -0.000002 0.000000 -0.000002 -0.000004 0.000000 -0.000001 -0.000002 0.000001 -0.000002 -0.000001 -41.180252 -8.498887 -10.048986 -53.473998 57.699888 101.782871 0.000652 89.256598 -0.001102 -55.326236 -18.365229 -25.183176 8.377121 -4.904131 11.021992 21.620202 -18.183900 -18.379204 0.000000 0.000002 0.000003 -0.920035 1.683582 12.434972 0.748110 -2.533466 32.898272 0.000000 0.000001 0.000001 3.413057 -7.186249 51.650263 6.296803 -4.359582 110.634639 0.000001 -0.000001 0.000001 -3.349049 -2.600405 57.010575 5.440874 -4.590883 99.698174 -0.000000 0.000001 -0.000000 -3.996432 -3.303961 64.593871 4.058823 -4.618635 82.610523 0.000001 0.000003 0.000004 -0.000001 -0.000001 0.000001 -0.000000 -0.000000 -0.000002 -0.000001 -0.000001 0.000000 -0.000000 0.000003 -0.000003 -0.000000 0.000003 -0.000003 -0.000000 0.000003 -0.000003 -0.000000 0.000003 -0.000001 -0.000000 -0.000001 0.000001 -0.000000 -0.000001 0.000001 -0.000000 -0.000001 0.000001 -0.000000 -0.000001 0.000001 -0.000000 -0.000001 0.000001 -0.000000 -0.000001 0.000001 -0.000000 -0.000001 0.000001 0.000000 -0.000000 -0.000000 0.000000 0.000001 0.000000 
